<svg xmlns="http://www.w3.org/2000/svg" viewBox="0 0 120 120" role="img" aria-label="MILEXLEGAL - Diosa de la Justicia">
  <rect width="120" height="120" rx="18" fill="#e9ece2"/>
  <!-- robe -->
  <path d="M60 41c-9 0-13 9-15 22-2 16-6 35-9 45h48c-3-10-7-29-9-45-2-13-6-22-15-22z" fill="#7e9d77"/>
  <!-- head -->
  <circle cx="60" cy="35" r="10" fill="#7e9d77"/>
  <!-- hair -->
  <path d="M50 33c0-9 5-15 10-15s10 6 10 15c-2-6-5-9-10-9s-8 3-10 9z" fill="#6b8a64"/>
  <!-- arms -->
  <path d="M60 53 30 65M60 53 90 65" stroke="#7e9d77" stroke-width="6" stroke-linecap="round" fill="none"/>
  <!-- scales of justice -->
  <g stroke="#566e50" stroke-width="3" fill="none" stroke-linecap="round" stroke-linejoin="round">
    <line x1="26" y1="61" x2="94" y2="61"/>
    <line x1="60" y1="50" x2="60" y2="61"/>
    <line x1="26" y1="61" x2="20" y2="75"/>
    <line x1="26" y1="61" x2="32" y2="75"/>
    <path d="M18 75a8 8 0 0 0 16 0z" fill="#cdd6c3"/>
    <line x1="94" y1="61" x2="88" y2="75"/>
    <line x1="94" y1="61" x2="100" y2="75"/>
    <path d="M86 75a8 8 0 0 0 16 0z" fill="#cdd6c3"/>
  </g>
  <!-- blindfold -->
  <rect x="49" y="33" width="22" height="5" rx="2.5" fill="#566e50"/>
</svg>
